# xmcd
#
# Track frame offsets:
#	150
#	27980
#	54980
#	75705
#	105200
#	127605
#	154560
#	177975
#
# Disc length: 2780 seconds
#
# Revision: 1
# Processed by: cddbd v1.4PL0 Copyright (c) Steve Scherf et al.
# Submitted via: audiograbber 1.82.01
#
DISCID=4d0ada08
DTITLE=Hany Shaker - Tekhsary
DYEAR=1900
DGENRE=
TTITLE0=Ha N3ish 
TTITLE1=Fi Ez Ma Kounte Khayen
TTITLE2=Biysamouki El Amar
TTITLE3=Tekhsary
TTITLE4=Adfa3lak Omri
TTITLE5=Ana Betakhed Minnik
TTITLE6=Hikayet Aleb
TTITLE7=Ana Zayyik
EXTD=
EXTT0=
EXTT1=
EXTT2=
EXTT3=
EXTT4=
EXTT5=
EXTT6=
EXTT7=
PLAYORDER=
